<?xml version="1.0" standalone="no"?>
<!DOCTYPE svg PUBLIC "-//W3C//DTD SVG 20010904//EN"
 "http://www.w3.org/TR/2001/REC-SVG-20010904/DTD/svg10.dtd">
<svg version="1.0" xmlns="http://www.w3.org/2000/svg"
 width="222.000000pt" height="222.000000pt" viewBox="0 0 222.000000 222.000000"
 preserveAspectRatio="xMidYMid meet">
<metadata>
Created by potrace 1.14, written by Peter Selinger 2001-2017
</metadata>
<g transform="translate(0.000000,222.000000) scale(0.100000,-0.100000)"
fill="#000000" stroke="none">
<path d="M1513 1859 c-18 -5 -33 -14 -33 -19 0 -6 -6 -10 -12 -10 -7 0 -22
-15 -34 -33 -25 -39 -24 -105 3 -141 33 -46 105 -61 151 -33 6 5 12 5 12 2 0
-13 70 71 71 85 1 8 3 25 4 36 8 79 -77 138 -162 113z m63 -87 c15 -10 9 -39
-12 -63 -12 -13 -21 -16 -29 -9 -6 5 -14 7 -17 5 -8 -8 -17 31 -9 42 6 10 42
32 51 33 3 0 10 -4 16 -8z"/>
<path d="M1450 1568 c0 -4 -17 -5 -37 -3 -21 2 -43 -1 -49 -6 -6 -5 -23 -10
-38 -11 -14 -1 -26 -6 -26 -11 0 -4 -4 -6 -9 -2 -14 8 -149 -52 -168 -75 -7
-8 -13 -12 -13 -7 0 4 -12 2 -27 -5 -30 -14 -101 -17 -121 -4 -6 4 -12 4 -12
-1 0 -12 -333 -10 -343 2 -6 7 -10 6 -13 -1 -3 -7 -27 -10 -65 -8 -38 3 -58 0
-54 -6 3 -6 -2 -10 -12 -10 -15 0 -16 -2 -3 -10 10 -6 11 -10 3 -10 -10 0 -10
-6 -2 -24 14 -31 19 -31 272 -31 212 1 228 -2 189 -36 -25 -21 -62 -30 -62
-16 0 8 -3 8 -8 2 -4 -6 -146 -10 -389 -10 -210 0 -385 -4 -389 -8 -15 -14
-13 -67 2 -67 8 0 14 -5 14 -11 0 -5 5 -7 11 -3 15 9 89 11 89 3 0 -4 15 -4
33 1 18 4 43 3 55 -1 13 -5 21 -5 18 -1 -6 9 111 8 121 -1 3 -4 12 -2 20 4 10
9 13 8 13 0 0 -7 4 -9 10 -6 19 12 50 14 50 3 0 -7 4 -7 13 0 8 7 18 7 27 2 8
-5 17 -7 21 -4 12 7 118 11 114 4 -5 -8 44 -4 68 5 9 4 17 3 17 -2 0 -12 32
-13 47 -1 15 12 11 -18 -5 -34 -7 -7 -12 -16 -12 -21 0 -5 -7 -15 -15 -24 -8
-8 -13 -18 -10 -22 2 -4 -118 -8 -268 -8 -282 0 -317 -5 -317 -41 1 -15 30
-65 30 -50 0 3 16 2 34 -2 19 -4 38 -5 41 -2 3 3 24 5 48 4 54 -2 180 -3 187
-2 22 5 100 4 100 -1 0 -4 15 -4 33 1 36 8 73 -9 58 -26 -9 -10 -38 -105 -45
-147 -3 -19 1 -34 14 -47 10 -10 16 -21 13 -24 -7 -6 25 -1 50 9 10 4 17 3 17
-4 0 -7 8 -8 25 -1 17 6 25 6 25 -1 0 -6 5 -7 12 -3 16 10 68 11 68 1 0 -5 5
-5 12 -1 13 9 134 8 148 -1 5 -3 10 -3 10 2 0 4 32 8 70 8 39 0 70 -3 70 -7 0
-4 12 -3 27 3 16 6 29 6 31 1 1 -5 23 -6 47 -2 25 4 45 3 45 -2 0 -5 6 -6 13
-1 18 11 37 13 37 2 0 -5 12 -4 27 2 19 7 28 6 33 -2 6 -8 13 -8 29 0 15 8 21
9 21 1 0 -6 5 -8 13 -3 18 11 37 13 37 2 0 -5 11 -4 25 1 17 6 25 6 25 -1 0
-6 5 -7 12 -3 17 10 68 11 68 0 0 -5 6 -4 13 2 6 5 21 6 32 2 11 -4 29 -3 40
3 13 7 20 7 23 -1 2 -8 11 -8 29 -1 15 5 29 6 32 2 10 -13 31 -14 31 -2 0 8 4
9 13 0 8 -6 16 -8 20 -5 9 10 57 12 57 2 0 -5 9 -4 19 2 14 7 20 7 23 -2 3 -7
9 -8 19 -3 7 5 21 10 29 10 44 4 51 6 46 14 -4 5 -1 11 6 13 8 3 13 33 14 90
1 48 5 91 8 97 4 6 3 11 -2 11 -5 0 -8 15 -6 33 2 17 1 39 -2 47 -4 8 -8 26
-10 40 -5 32 -12 64 -14 68 -2 1 -4 7 -5 12 -1 6 -4 13 -5 18 -1 4 -2 10 -1
15 0 4 -3 7 -9 7 -5 0 -10 6 -10 13 0 42 -122 189 -189 227 -14 8 -29 19 -32
23 -3 5 -8 8 -10 7 -2 0 -20 5 -39 14 -19 8 -44 16 -55 18 -11 1 -23 6 -26 11
-3 4 -24 8 -47 10 -23 1 -42 4 -42 7 0 3 -21 7 -47 9 -104 6 -153 6 -153 -1z
m40 -89 c0 -5 10 -5 23 0 12 5 32 5 45 0 14 -5 22 -5 22 2 0 6 6 6 19 -1 11
-5 26 -7 34 -4 8 3 18 1 21 -5 4 -6 13 -8 21 -4 8 3 15 1 15 -3 0 -5 14 -10
31 -11 17 -1 37 -7 44 -13 6 -5 14 -8 17 -5 3 3 11 -1 18 -10 7 -8 18 -15 24
-15 7 0 22 -9 34 -20 12 -12 22 -18 22 -15 0 8 63 -58 80 -84 8 -13 21 -29 28
-37 7 -7 13 -17 13 -21 0 -4 9 -28 20 -52 10 -24 16 -47 13 -52 -3 -5 0 -9 5
-9 6 0 10 -3 9 -7 -1 -5 2 -30 7 -58 11 -68 12 -155 2 -181 l-9 -22 -639 1
c-351 0 -639 4 -639 8 0 4 4 10 10 14 5 3 7 12 3 20 -3 8 -1 15 4 15 5 0 10 6
11 13 6 48 10 60 21 67 8 4 11 12 7 18 -3 6 -3 12 1 14 7 3 25 32 60 101 8 15
19 27 24 27 5 0 9 7 9 15 0 9 7 18 15 21 8 4 13 9 12 13 -2 3 22 32 55 64 32
31 58 54 58 50 0 -4 7 3 16 15 8 12 22 22 30 22 8 0 17 6 20 14 3 8 19 18 36
21 16 4 31 12 34 19 3 7 10 13 17 13 15 1 80 26 87 33 3 3 12 5 20 5 8 -1 20
1 25 4 14 8 35 11 77 14 21 1 38 5 38 8 0 3 7 6 15 6 8 0 15 -4 15 -8z"/>
<path d="M1340 1375 c-14 -7 -28 -11 -32 -9 -5 3 -8 1 -8 -5 0 -5 -13 -12 -30
-16 -16 -4 -30 -10 -30 -13 0 -4 -13 -13 -28 -20 -16 -6 -38 -21 -50 -32 -12
-11 -24 -20 -27 -20 -3 0 -18 -12 -32 -27 -14 -16 -29 -27 -34 -26 -5 2 -8 0
-8 -5 3 -19 -2 -33 -11 -27 -5 3 -10 -1 -10 -9 0 -9 -4 -16 -10 -16 -5 0 -16
-16 -24 -35 -8 -19 -20 -35 -25 -35 -6 0 -8 -7 -5 -15 4 -8 1 -15 -6 -15 -7 0
-10 -7 -7 -15 4 -8 2 -17 -3 -20 -6 -4 -5 -14 3 -25 12 -21 67 -28 67 -10 0 6
9 19 20 30 11 11 15 20 9 20 -6 0 -5 6 3 14 7 7 20 24 28 37 20 31 117 129
128 129 4 0 17 8 28 18 10 9 37 26 59 36 40 20 47 22 64 25 36 5 54 67 24 78
-10 4 -20 10 -23 14 -3 4 -16 1 -30 -6z"/>
<path d="M1027 712 c-3 -4 -98 -7 -211 -7 -156 0 -207 -3 -211 -12 -2 -7 -10
-13 -17 -13 -25 0 -51 -44 -56 -91 -5 -51 12 -80 58 -103 36 -18 1532 -16
1538 2 2 7 10 12 18 12 8 0 14 5 14 11 0 5 5 7 12 3 7 -4 8 -3 4 5 -4 6 -1 14
7 17 9 3 14 16 12 30 -1 13 1 24 4 24 4 0 7 9 7 20 0 11 -4 20 -8 20 -4 0 -8
6 -8 13 -1 20 -26 47 -51 54 -13 3 -143 6 -289 7 -164 1 -268 5 -272 11 -5 7
-8 7 -8 0 0 -5 -25 -10 -55 -10 -30 0 -55 5 -55 10 0 6 -4 4 -9 -3 -4 -8 -12
-14 -16 -14 -4 0 -12 6 -16 14 -5 7 -9 8 -9 2 0 -7 -12 -10 -27 -7 -16 2 -34
4 -40 4 -7 0 -40 -1 -72 -2 -33 -1 -64 2 -70 5 -6 4 -11 3 -11 -2 0 -12 -43
-10 -52 3 -5 7 -8 7 -8 0 0 -11 -71 -12 -88 -1 -6 3 -13 3 -15 -2z m1083 -114
c0 -9 -6 -20 -12 -24 -16 -10 -1452 -12 -1476 -2 -10 4 -11 7 -4 7 7 1 10 6 7
11 -3 6 3 14 14 18 11 4 346 7 745 7 682 1 726 0 726 -17z"/>
</g>
</svg>
